<svg id="Layer_1" data-name="Layer 1" xmlns="http://www.w3.org/2000/svg" viewBox="0 0 360 360"><defs><style>.cls-3{fill:#1f232b;opacity:.52}</style></defs><path d="M183 338.5c-85.19 0-154.5-69.31-154.5-154.5S97.81 29.5 183 29.5 337.5 98.81 337.5 184 268.19 338.5 183 338.5z" fill="#7585aa"/><path d="M183 30a154 154 0 0 1 108.89 262.89A154 154 0 0 1 74.11 75.11 153 153 0 0 1 183 30m0-1a155 155 0 1 0 155 155A155 155 0 0 0 183 29z"/><ellipse cx="193" cy="167.74" rx="134" ry="135.33" fill="#3f517a"/><path class="cls-3" d="M179.36 30.34a156.71 156.71 0 0 0-16.57 1.3L30.19 209.8a154 154 0 0 0 8.52 31.56l1.86 1.38L198.17 31a156.52 156.52 0 0 0-18.81-.66z"/><path class="cls-3" d="M337.54 182.71a5.68 5.68 0 0 1 .37-3.77v-.2a5.63 5.63 0 0 1-.4-4.66 5.68 5.68 0 0 1-.12-4.33 5.63 5.63 0 0 1-.45-3.29 5.58 5.58 0 0 1-.66-4.79 5.61 5.61 0 0 1-.57-3.52 5.45 5.45 0 0 1-.64-2.36 5.64 5.64 0 0 1-.44-4.33l-.93-5.72-215-7.88 107.41 26.54-2.08-.51-48.39 64.71L118 137l74.78 201.08a5.41 5.41 0 0 1 1.31-.16h.33a5.44 5.44 0 0 1 1 .11 5.24 5.24 0 0 1 1.71-.27h.18a5.36 5.36 0 0 1 1.4-.18h.4a5.12 5.12 0 0 1 1.94-.36h.31a5.25 5.25 0 0 1 1.69-.27h.31l11.64-1.8a423.69 423.69 0 0 1 3.65-.9l12.17-3.39a4.65 4.65 0 0 1 2.6-.93h.11a4.79 4.79 0 0 1 2.15-.63c.14 0 .26-.1.41-.14a4.77 4.77 0 0 1 1-.41 4.48 4.48 0 0 1 1.2-.53l-49.42-78.53-4.51-7.17 55.25-74.74 10.5 2.6 87.31 21.57c0-.15 0-.3.07-.44a5.78 5.78 0 0 1 0-2.15 5.71 5.71 0 0 1 .25-3.15 5.71 5.71 0 0 1-.2-3.5z"/></svg>