<svg xmlns="http://www.w3.org/2000/svg" viewBox="0 0 500 511.077"><circle cx="161.123" cy="166.531" r="41.845" fill="#d6dbe5"/><circle cx="161.123" cy="166.531" r="34.455" fill="#314a7e"/><path d="M169.854 166.544h-5.71v20.365h-8.466v-20.365h-4.026v-7.194h4.026v-4.655c0-3.329 1.581-8.542 8.541-8.542l6.271.027v6.983h-4.55c-.747 0-1.796.373-1.796 1.961v4.234h6.449l-.739 7.186zm0 0" fill="#f1f2f2"/><circle cx="70.592" cy="71.58" r="41.845" fill="#cee6ec"/><circle cx="70.592" cy="71.58" r="34.455" fill="#0a819f"/><path d="M84.283 57.109c3.736.099 5.599 2.216 5.617 6.368 0 .271-.009.561-.018.85-.163 3.52-2.786 8.304-7.869 14.373-5.237 6.352-9.678 9.536-13.332 9.552-2.271 0-4.162-1.942-5.673-5.833l-1.591-5.338-1.564-5.327c-1.159-3.862-2.397-5.789-3.718-5.789-.29 0-1.293.563-3.012 1.683l-1.836-2.172 2.849-2.359 2.797-2.335c2.506-2.007 4.413-3.102 5.714-3.255.181-.018.355-.028.536-.028 2.676 0 4.361 1.926 5.01 5.789.371 2.198.678 3.99.922 5.366.235 1.372.436 2.331.597 2.885.887 3.644 1.845 5.48 2.866 5.5.797 0 2.008-1.195 3.646-3.573 1.61-2.443 2.469-4.252 2.587-5.428.028-.245.046-.462.046-.67 0-1.602-.878-2.397-2.633-2.397-.886 0-1.827.19-2.84.561 1.809-5.599 5.301-8.403 10.463-8.422h.436zm0 0" fill="#f1f2f2"/><circle cx="342.184" cy="71.58" r="41.845" fill="#f6ded7"/><circle cx="342.184" cy="71.58" r="34.455" fill="#d15939"/><path d="M343.203 52.32c.34.261.634.579.959.859 2.93 2.766 5.617 5.822 7.779 9.231 2.091 3.301 3.699 6.95 4.414 10.804.394 2.112.524 4.278.293 6.415-.104.894-.259 1.787-.544 2.641-.399 1.238-.923 2.442-1.643 3.53a10.027 10.027 0 0 1-2.286 2.457c-.984.743-2.107 1.288-3.275 1.662-1.453.464-2.976.694-4.492.819-1.813.135-3.635.16-5.443-.07-2.046-.255-4.078-.799-5.901-1.783-1.688-.908-3.17-2.241-4.124-3.918-1.103-1.918-1.468-4.189-1.293-6.381.18-2.321.919-4.573 1.897-6.675.849-1.807 1.887-3.519 3.039-5.147a38.494 38.494 0 0 1 3.201-3.939c.02-.015.06-.05.085-.065-.021 1.043.08 2.091.379 3.094a7.998 7.998 0 0 0 1.502 2.811c.04.05.071.12.146.13 1.482-1.113 2.885-2.362 3.978-3.865a12.06 12.06 0 0 0 2.182-5.272c.386-2.459.057-5.021-.853-7.338z" fill="#f1f2f2"/><circle cx="342.184" cy="166.531" r="41.845" fill="#e5dceb"/><circle cx="342.184" cy="166.531" r="34.455" fill="#7b519d"/><g fill="#f1f2f2"><path d="M357.296 174.922c-1.11-.895-2.298-1.698-3.465-2.517-2.332-1.638-4.463-1.765-6.203.87-.978 1.478-2.343 1.544-3.774.894-3.94-1.786-6.984-4.54-8.768-8.547-.787-1.772-.778-3.36 1.068-4.614.978-.663 1.961-1.447 1.883-2.897-.102-1.888-4.69-8.201-6.5-8.867-.75-.276-1.497-.258-2.258-.001-4.247 1.428-6.005 4.92-4.321 9.055 5.024 12.337 13.869 20.926 26.042 26.169.694.298 1.465.417 1.856.524 2.771.028 6.018-2.642 6.956-5.293.902-2.55-1.005-3.56-2.516-4.776zm-13.649-24.898c8.9 1.369 13.005 5.602 14.138 14.566.104.828-.204 2.074.977 2.097 1.235.023.937-1.204.947-2.032.105-8.442-7.257-16.269-15.805-16.558-.645.093-1.979-.445-2.063 1-.055.974 1.07.814 1.806.927z"/><path d="M345.388 152.482c-.857-.103-1.986-.507-2.186.682-.208 1.246 1.05 1.12 1.86 1.301 5.497 1.229 7.41 3.23 8.317 8.682.132.795-.13 2.032 1.22 1.828 1-.153.64-1.213.723-1.832.044-5.237-4.442-10.001-9.934-10.66z"/><path d="M345.892 156.763c-.572.015-1.131.076-1.342.687-.317.912.349 1.13 1.023 1.24 2.256.36 3.44 1.69 3.667 3.94.061.61.448 1.104 1.038 1.036.816-.098.89-.825.865-1.515.041-2.53-2.813-5.449-5.25-5.388z"/></g><circle cx="432.715" cy="71.58" r="41.845" fill="#cce2fe"/><circle cx="432.715" cy="71.58" r="34.455" fill="#006efb"/><path d="M428.77 70.211s3.87-.288 3.87-4.828c0-4.541-3.166-6.757-7.178-6.757H412.26v25.373h13.202s8.057.254 8.057-7.49c.001 0 .353-6.298-4.749-6.298zm-10.692-7.075h7.385s1.793 0 1.793 2.641c0 2.638-1.056 3.02-2.251 3.023h-6.927v-5.664zm7.043 16.354h-7.043v-6.781h7.385s2.674-.034 2.674 3.484c-.001 2.936-1.957 3.266-3.016 3.297zm13.691-19.368h10.47v3.123h-10.47zm5.457 4.96c-9.757 0-9.746 9.748-9.746 9.748s-.67 9.697 9.748 9.697c0 0 8.681.499 8.681-6.746h-4.464s.147 2.729-4.068 2.729c0 0-4.465.299-4.465-4.414h13.147c-.001-.001 1.437-11.014-8.833-11.014zm-4.364 7.627s.544-3.912 4.465-3.912c3.92 0 3.87 3.912 3.87 3.912h-8.335z" fill="#f1f2f2"/><circle cx="70.592" cy="166.531" r="41.845" fill="#cceffc"/><circle cx="70.592" cy="166.531" r="34.455" fill="#00aff0"/><path d="M87.856 169.258c.142-.889.215-1.798.215-2.727 0-9.656-7.824-17.48-17.479-17.48-.929 0-1.839.075-2.728.215a10.52 10.52 0 0 0-5.547-1.572c-5.833 0-10.562 4.729-10.562 10.565 0 2.035.575 3.932 1.571 5.547a17.885 17.885 0 0 0-.212 2.726c0 9.655 7.824 17.479 17.477 17.479.928 0 1.839-.072 2.728-.214a10.54 10.54 0 0 0 5.548 1.572c5.834 0 10.563-4.731 10.563-10.562a10.51 10.51 0 0 0-1.574-5.549zm-8.965 5.224c-.739 1.065-1.825 1.896-3.246 2.493-1.422.6-3.103.899-5.045.899-2.325 0-4.251-.406-5.772-1.231a7.434 7.434 0 0 1-2.628-2.363c-.677-.985-1.018-1.95-1.018-2.893 0-.552.212-1.036.623-1.431.417-.395.953-.593 1.587-.593.519 0 .962.155 1.326.465.359.309.662.757.907 1.351.297.689.62 1.263.96 1.721.34.454.819.832 1.438 1.128.614.297 1.429.444 2.45.444 1.396 0 2.526-.301 3.389-.898.869-.6 1.285-1.332 1.285-2.217 0-.706-.225-1.265-.684-1.7-.467-.444-1.068-.782-1.814-1.016-.748-.238-1.753-.49-3.012-.755-1.691-.368-3.105-.798-4.252-1.292-1.146-.495-2.06-1.171-2.736-2.028-.679-.863-1.016-1.937-1.016-3.207 0-1.212.358-2.299 1.07-3.24.717-.946 1.75-1.672 3.097-2.175 1.344-.504 2.926-.757 4.74-.757 1.446 0 2.701.167 3.763.501 1.057.336 1.94.781 2.642 1.337.701.556 1.218 1.14 1.544 1.755.327.615.491 1.219.491 1.804 0 .547-.211 1.043-.625 1.477a2.052 2.052 0 0 1-1.554.654c-.556 0-.991-.126-1.294-.398-.295-.264-.604-.681-.938-1.264-.424-.811-.929-1.444-1.517-1.899-.575-.443-1.52-.676-2.835-.673-1.219 0-2.192.249-2.927.736-.74.493-1.094 1.067-1.096 1.739.002.422.123.777.367 1.079.247.308.592.572 1.034.798.443.226.893.401 1.346.529.457.129 1.218.315 2.272.565a38.81 38.81 0 0 1 3.603.952c1.078.349 1.995.771 2.755 1.273a5.329 5.329 0 0 1 1.791 1.907c.43.771.642 1.713.642 2.822-.002 1.336-.373 2.537-1.113 3.601zm0 0" fill="#f1f2f2"/><circle cx="70.592" cy="261.215" r="41.845" fill="#e9dcd2"/><circle cx="70.592" cy="261.215" r="34.455" fill="#e78031"/><path d="M86.083 256.767h-1.994c-1.221 0-2.294-1.033-2.375-2.223 0-6.348-5.118-11.12-11.51-11.12h-5.833c-6.386 0-11.565 5.143-11.57 11.49v12.607c0 6.348 5.184 11.487 11.57 11.487h12.456c6.392 0 11.559-5.139 11.559-11.487v-8.145c-.001-1.268-1.024-2.609-2.303-2.609zm-21.421-4.448h5.931a2.975 2.975 0 0 1 2.965 2.965 2.973 2.973 0 0 1-2.965 2.965h-5.931a2.973 2.973 0 0 1-2.965-2.965 2.973 2.973 0 0 1 2.965-2.965zm11.861 17.792H64.662a2.973 2.973 0 0 1-2.965-2.965 2.974 2.974 0 0 1 2.965-2.966h11.861a2.975 2.975 0 0 1 2.966 2.966 2.974 2.974 0 0 1-2.966 2.965z" fill="#f1f2f2"/><circle cx="161.123" cy="261.215" r="41.845" fill="#fbdbe7"/><circle cx="161.123" cy="261.215" r="34.455" fill="#ea4c89"/><path d="M161.123 240.199c-11.603 0-21.043 9.429-21.043 21.016 0 11.588 9.44 21.016 21.043 21.016s21.043-9.427 21.043-21.016c0-11.587-9.44-21.016-21.043-21.016zm13.846 9.919a17.648 17.648 0 0 1 3.927 10.826c-.799-.164-4.181-.795-8.224-.795a33.21 33.21 0 0 0-4.053.235c-.117-.282-.232-.564-.354-.848a55.441 55.441 0 0 0-1.14-2.493c6.221-2.562 9.222-6.119 9.844-6.925zm-13.846-6.629c4.483 0 8.582 1.666 11.713 4.41-.495.676-3.184 4.035-9.182 6.302a96.157 96.157 0 0 0-6.539-10.254 17.71 17.71 0 0 1 4.008-.458zm-7.637 1.723c.613.844 3.657 5.092 6.505 10.127-7.644 2.009-14.431 2.14-16.069 2.14h-.174c1.177-5.424 4.841-9.931 9.738-12.267zm-10.141 16.031c0-.146.002-.292.007-.438l.467.001c2.206 0 9.864-.182 17.756-2.524.479.937.935 1.887 1.359 2.838-.199.057-.396.115-.591.178-8.885 2.87-13.769 10.467-14.521 11.709a17.661 17.661 0 0 1-4.477-11.764zm17.778 17.754a17.7 17.7 0 0 1-10.843-3.697c.508-.995 4.195-7.633 13.932-11.021a.093.093 0 0 1 .02-.007c2.441 6.357 3.475 11.692 3.759 13.345a17.677 17.677 0 0 1-6.868 1.38zm10.069-3.13c-.238-1.368-1.196-6.368-3.407-12.466a23.297 23.297 0 0 1 3.578-.269c3.716 0 6.622.813 7.298 1.02-.804 4.842-3.576 9.033-7.469 11.715zm0 0" fill="#f1f2f2"/><circle cx="432.715" cy="261.215" r="41.845" fill="#ccdee6"/><circle cx="432.715" cy="261.215" r="34.455" fill="#005983"/><path d="M452.515 263.965v13.714h-7.95v-12.794c0-3.213-1.148-5.407-4.027-5.407-2.197 0-3.502 1.477-4.078 2.908-.209.511-.263 1.221-.263 1.938v13.355h-7.952s.107-21.67 0-23.913h7.952v3.389c-.016.027-.039.053-.053.078h.053v-.078c1.057-1.626 2.941-3.95 7.165-3.95 5.232-.001 9.153 3.416 9.153 10.76zm-32.588-21.726c-2.72 0-4.499 1.785-4.499 4.131 0 2.296 1.728 4.133 4.395 4.133h.051c2.773 0 4.497-1.837 4.497-4.133-.052-2.346-1.723-4.131-4.444-4.131zm-4.026 35.44h7.949v-23.913h-7.949v23.913zm0 0" fill="#f1f2f2"/><circle cx="251.654" cy="261.215" r="41.845" fill="#fad5d4"/><circle cx="251.654" cy="261.215" r="34.455" fill="#e52d27"/><path d="M272.249 252.958a6.157 6.157 0 0 0-6.157-6.159h-28.877a6.157 6.157 0 0 0-6.157 6.159v16.514a6.157 6.157 0 0 0 6.157 6.159h28.877a6.158 6.158 0 0 0 6.157-6.159v-16.514zm-24.714 15.225v-15.51l11.763 7.754-11.763 7.756zm0 0" fill-rule="evenodd" clip-rule="evenodd" fill="#f1f2f2"/><circle cx="340.851" cy="261.215" r="41.845" fill="#dbebf3"/><circle cx="340.851" cy="261.215" r="34.455" fill="#4c9cc1"/><path d="M362.117 248.024a17.419 17.419 0 0 1-5.012 1.373 8.753 8.753 0 0 0 3.838-4.827 17.467 17.467 0 0 1-5.541 2.117 8.72 8.72 0 0 0-6.371-2.755 8.728 8.728 0 0 0-8.499 10.715c-7.252-.364-13.682-3.838-17.986-9.118a8.688 8.688 0 0 0-1.182 4.387 8.724 8.724 0 0 0 3.882 7.263 8.68 8.68 0 0 1-3.952-1.092l-.001.111c0 4.228 3.009 7.754 7 8.555a8.713 8.713 0 0 1-3.941.151 8.734 8.734 0 0 0 8.152 6.059 17.507 17.507 0 0 1-10.838 3.736 17.63 17.63 0 0 1-2.08-.122 24.68 24.68 0 0 0 13.375 3.921c16.051 0 24.828-13.296 24.828-24.829 0-.378-.009-.755-.026-1.128a17.709 17.709 0 0 0 4.354-4.517zm0 0" fill="#f1f2f2"/><circle cx="251.654" cy="166.531" r="41.845" fill="#d5dbe0"/><circle cx="251.654" cy="166.531" r="34.455" fill="#2e4963"/><path d="M253.88 154.7v-9.103h-5.875a3.153 3.153 0 0 0-.198 1.143c-.061.198-.134.34-.134.537-.603 3.375-2.356 5.73-5.325 7.016-.881.406-1.69.468-2.563.406v7.338h4.318c.07 10.326.07 15.65.07 15.92v.612c.542 4.505 2.898 7.205 7.079 8.22 1.683.467 3.5.674 5.325.674a25.04 25.04 0 0 0 6.944-1.213v-8.635c-1.34.404-2.563.746-3.641 1.079-2.088.611-3.841.206-5.264-1.142-.134-.206-.333-.477-.403-.747a18.542 18.542 0 0 1-.325-3.299v-11.469h9.363V154.7h-9.371zm0 0" fill="#f1f2f2"/><g><circle cx="70.592" cy="355.899" r="41.845" fill="#eed6d4"/><circle cx="70.592" cy="355.899" r="34.455" fill="#a83429"/><path d="M73.285 365.234c-2.522-.195-3.582-1.446-5.56-2.647-1.087 5.704-2.416 11.172-6.351 14.028-1.216-8.621 1.783-15.096 3.176-21.969-2.374-3.997.286-12.041 5.293-10.059 6.163 2.437-5.336 14.861 2.383 16.412 8.059 1.62 11.349-13.984 6.351-19.059-7.221-7.328-21.019-.167-19.322 10.323.414 2.564 3.063 3.343 1.058 6.882-4.621-1.023-6-4.669-5.823-9.528.286-7.955 7.147-13.524 14.029-14.295 8.703-.974 16.872 3.196 18 11.383 1.27 9.241-3.928 19.248-13.234 18.529zm0 0" fill="#f1f2f2"/></g><g><circle cx="251.654" cy="71.58" r="41.845" fill="#e4dae8"/><circle cx="251.654" cy="71.58" r="34.455" fill="#7a468c"/><path d="M265.064 64.122c-.164.047-.504.328-1.028.831L262.2 66.87l-2.297 2.545a42.221 42.221 0 0 0-2.196 2.712c-.669.887-1.261 1.674-1.765 2.364-.512.68-.833 1.201-.979 1.578-.033.189-.051.729-.051 1.616 0 .897.014 1.874.025 2.931.02 1.06.032 2.05.052 2.997.017.935.037 1.559.074 1.872.128.047.455.066.985.066h1.659c.6 0 1.162.02 1.691.038.531.027.89.065 1.086.124l-.05 2.504c-.19 0-.619-.01-1.294-.038a80.446 80.446 0 0 0-2.347-.029h-5.299c-.36 0-.903.01-1.615.029-.708.028-1.466.049-2.28.075-.812.021-1.576.039-2.295.039h-1.615l.29-2.382h1.003c.487 0 .979-.009 1.482-.029a6.238 6.238 0 0 0 1.439-.198c.461-.123.789-.341 1.003-.654.095-.14.158-.623.189-1.454.032-.823.045-1.778.045-2.836 0-1.069.01-2.086.018-3.053.013-.962.025-1.616.045-1.939.037-.198-.158-.677-.594-1.445l-1.595-2.826-2.05-3.629-2.128-3.763-1.949-2.977c-.593-.891-1.06-1.497-1.394-1.815h-5.123v-3.168h16.878v.238h.044l-.044.547v2.382h-5.155l1.937 3.632 1.981 3.712 1.759 3.29 1.369 2.582 6.872-8.719h-4.177l-.537-3.168h14.897l-.12.209h.076l-1.11 2.118h-.05l-.442.841h-2.599a1.305 1.305 0 0 1-.468.2c-.152.048-.29.085-.417.133z" fill="#f1f2f2"/></g><g><circle cx="342.184" cy="355.899" r="41.845" fill="#f5d8d9"/><circle cx="342.184" cy="355.899" r="34.455" fill="#d05743"/><path d="M334.225 353.909v4.776h7.9c-.318 2.05-2.388 6.009-7.9 6.009-4.756 0-8.636-3.94-8.636-8.795 0-4.856 3.88-8.795 8.636-8.795 2.706 0 4.517 1.154 5.552 2.149l3.781-3.641c-2.427-2.269-5.572-3.641-9.333-3.641-7.701 0-13.929 6.228-13.929 13.929 0 7.701 6.228 13.929 13.929 13.929 8.039 0 13.372-5.651 13.372-13.611 0-.916-.1-1.612-.219-2.309h-13.153zm29.848 0h-3.98v-3.979h-3.979v3.979h-3.979v3.98h3.979v3.979h3.979v-3.979h3.98v-3.98z" fill="#f1f2f2"/></g><g><circle cx="432.715" cy="355.899" r="41.845" fill="#dfdceb"/><circle cx="432.715" cy="355.899" r="34.455" fill="#5e5099"/><path d="M440.898 369.806h-7.367l-4.907 4.92h-4.907v-4.92h-8.999v-26.182l2.447-6.552h33.549v22.919l-9.816 9.815zm6.552-11.447v-18.01h-27.01v23.733h7.367v4.908l4.908-4.908h8.999l5.736-5.723z" fill="#f1f2f2"/><path d="M438.438 346.901v9.827h3.276v-9.827h-3.276zm-8.999 9.814h3.276V346.9h-3.276v9.815z" fill="#f1f2f2"/></g><g><circle cx="161.123" cy="355.899" r="41.845" fill="#d6f2d7"/><circle cx="161.123" cy="355.899" r="34.455" fill="#30bf39"/><path d="M170.284 359.673c-.471-.258-2.786-1.507-3.219-1.684-.434-.177-.751-.268-1.09.2-.337.467-1.298 1.513-1.588 1.823-.293.311-.574.34-1.046.081-.469-.258-1.997-.823-3.768-2.526-1.379-1.325-2.283-2.932-2.545-3.422-.263-.491-.002-.741.247-.971.224-.208.501-.544.752-.814.249-.27.337-.468.509-.782.172-.313.103-.597-.009-.842-.111-.244-.982-2.641-1.345-3.617-.364-.975-.77-.83-1.049-.841-.28-.009-.598-.062-.918-.074-.321-.012-.845.089-1.302.552-.458.463-1.742 1.578-1.83 3.939-.089 2.36 1.545 4.706 1.773 5.034.228.33 3.119 5.447 7.923 7.551 4.807 2.105 4.833 1.464 5.714 1.416.883-.047 2.882-1.056 3.325-2.16.442-1.105.477-2.065.365-2.27-.113-.202-.429-.335-.899-.593zm-8.815 11.378c-3.176 0-6.137-.953-8.608-2.588l-6.014 1.925 1.954-5.811a15.56 15.56 0 0 1-2.979-9.174c0-8.63 7.019-15.649 15.646-15.649 8.63 0 15.649 7.019 15.649 15.649.001 8.627-7.018 15.648-15.648 15.648zm0-34.446c-10.38 0-18.796 8.415-18.796 18.797 0 3.552.986 6.872 2.698 9.706l-3.394 10.084 10.407-3.331a18.722 18.722 0 0 0 9.085 2.338c10.383 0 18.799-8.416 18.799-18.797s-8.415-18.797-18.799-18.797z" fill-rule="evenodd" clip-rule="evenodd" fill="#f1f2f2"/></g><g><circle cx="432.715" cy="166.531" r="41.845" fill="#d9effc"/><circle cx="432.715" cy="166.532" r="34.455" fill="#40b0ef"/><path d="M451.119 153.039c-.072.901-.339 1.856-.542 2.82-1.687 7.989-3.383 15.975-5.079 23.962-.098.459-.203.919-.449 1.331-.405.675-.991.923-1.758.748-.483-.11-.903-.337-1.3-.631-2.557-1.897-5.124-3.781-7.673-5.689-.324-.243-.51-.216-.784.056-1.257 1.249-2.539 2.473-3.8 3.719-.481.475-1.013.76-1.713.735-.495-.018-.778-.22-.929-.691-.788-2.463-1.59-4.921-2.388-7.381-.271-.835-.557-1.665-.81-2.505-.091-.303-.247-.457-.553-.551-2.502-.768-4.998-1.555-7.496-2.335-.33-.103-.66-.207-.954-.392-.713-.448-.77-1.048-.15-1.615.424-.388.94-.619 1.469-.823l10.221-3.945 22.069-8.507c.059-.023.116-.048.175-.07 1.38-.517 2.434.206 2.444 1.764zm-23.082 24.703c.134-.063.122-.154.128-.225.168-1.795.342-3.589.489-5.385.037-.447.175-.779.522-1.09 4.795-4.306 9.577-8.626 14.362-12.944.303-.273.608-.543.904-.824.122-.116.282-.249.188-.441-.099-.2-.311-.192-.499-.17-.368.042-.681.222-.988.416-5.901 3.723-11.8 7.448-17.708 11.16-.336.211-.382.404-.262.763.731 2.184 1.439 4.376 2.155 6.566l.709 2.174z" fill="#fefefe"/></g><g><circle cx="161.123" cy="71.58" r="41.845" fill="#d9dfed"/><circle cx="161.123" cy="71.58" r="34.455" fill="#4060a5"/><g fill="#fff"><path d="M161.159 50.496c2.829.05 5.659.078 8.487.157 2.455.069 4.835.507 6.969 1.809 2.797 1.707 4.508 4.224 5.06 7.421.33 1.913.444 3.879.473 5.824.064 4.183.039 8.368-.007 12.551-.024 2.196-.097 4.4-.825 6.512-1.412 4.094-4.285 6.582-8.499 7.383-1.904.362-3.878.444-5.823.474-4.167.063-8.337.038-12.505-.007-2.196-.023-4.4-.096-6.513-.818-4.1-1.402-6.589-4.275-7.401-8.484-.367-1.902-.447-3.878-.477-5.823-.064-4.183-.039-8.368.007-12.551.024-2.196.097-4.4.826-6.512 1.413-4.094 4.286-6.581 8.499-7.382 1.904-.362 3.877-.402 5.824-.478 1.966-.077 3.937-.017 5.906-.017l-.001-.059zm17.299 20.768l-.085-.002c0-1.661.034-3.324-.01-4.984-.042-1.597-.103-3.198-.264-4.786-.361-3.562-2.481-6.016-5.987-6.682-1.842-.35-3.757-.404-5.641-.439a323.863 323.863 0 0 0-10.707-.003c-1.779.027-3.575.094-5.328.368-3.045.475-5.127 2.217-5.969 5.238-.27.968-.428 1.994-.452 2.998a419.599 419.599 0 0 0-.134 11.441c.009 2.427.064 4.862.275 7.277.317 3.621 2.521 6.091 6.087 6.738 1.832.333 3.73.374 5.6.406 3.522.06 7.046.044 10.568.005a55.302 55.302 0 0 0 4.832-.266c1.501-.148 2.905-.638 4.112-1.596 1.957-1.554 2.713-3.698 2.829-6.076.157-3.21.189-6.425.274-9.637z"/><path d="M171.938 71.612a10.773 10.773 0 0 1-10.825 10.805c-6.036-.001-10.806-4.821-10.804-10.919.003-5.944 4.866-10.715 10.918-10.711 5.911.004 10.711 4.854 10.711 10.825zm-10.82 7.006c3.847.004 7.018-3.163 7.021-7.013.003-3.848-3.167-7.023-7.012-7.021-3.854.002-7.017 3.161-7.021 7.012-.003 3.847 3.164 7.018 7.012 7.022zm13.773-18.269c.002 1.416-1.135 2.566-2.529 2.557-1.4-.009-2.557-1.173-2.544-2.56a2.532 2.532 0 0 1 2.526-2.513c1.439-.007 2.545 1.085 2.547 2.516z"/></g></g><g><circle cx="251.654" cy="355.899" r="41.845" fill="#fcf4d6"/><circle cx="251.654" cy="355.899" r="34.455" fill="#f1c834"/><path d="M267.146 353.516c.104.592-.111 1.073-.515 1.488a1.146 1.146 0 0 1-.711.362 7.01 7.01 0 0 0-2.02.549 3.77 3.77 0 0 0-.792.47c-.697.549-.927 1.268-.682 2.121.161.56.445 1.059.812 1.501.634.762 1.208 1.574 1.892 2.294.987 1.038 2.07 1.952 3.458 2.406.664.217 1.349.376 1.965.716.235.13.516.212.652.493.156.32.144.499-.109.759-.261.269-.591.434-.928.583-1.036.459-2.13.731-3.231.974a21.49 21.49 0 0 1-1.004.203c-.147.025-.201.073-.185.232.032.316 0 .632-.065.943-.235 1.119-.93 1.57-2.041 1.319a3.06 3.06 0 0 1-.636-.194c-1.285-.61-2.469-.366-3.613.379-1.348.876-2.73 1.693-4.21 2.331-.985.425-1.998.759-3.068.874-1.125.121-2.186-.2-3.225-.576-1.649-.596-3.152-1.479-4.627-2.41-.326-.205-.656-.4-.997-.578-.864-.453-1.747-.486-2.649-.135-.406.158-.814.304-1.251.362-.743.099-1.338-.237-1.611-.934-.168-.429-.214-.88-.19-1.335.01-.18-.021-.247-.213-.284-1.35-.26-2.693-.554-3.975-1.07-.365-.147-.722-.314-1.03-.565-.469-.381-.465-.771.02-1.132.535-.398 1.156-.63 1.789-.793 1.204-.308 2.229-.92 3.156-1.723a12.179 12.179 0 0 0 1.807-1.956c.357-.481.789-.901 1.123-1.4.384-.573.72-1.164.741-1.88a1.468 1.468 0 0 0-.064-.506c-.134-.531-.488-.892-.929-1.178-.723-.47-1.536-.695-2.377-.83-.836-.135-1.44-.756-1.463-1.512a1.24 1.24 0 0 1 .296-.851c.654-.801 1.703-1.03 2.637-.578.421.204.847.391 1.304.504.154.038.305.037.456.029.276-.015.417-.298.376-.517-.366-1.959-.504-3.924-.196-5.91a11.036 11.036 0 0 1 1.977-4.853 9.686 9.686 0 0 1 1.404-1.543c1.517-1.355 3.303-2.17 5.304-2.524a10.554 10.554 0 0 1 2.034-.181 11.4 11.4 0 0 1 3.887.749c1.413.541 2.666 1.334 3.727 2.411 1.362 1.384 2.248 3.038 2.716 4.921.561 2.256.472 4.514.03 6.773-.103.525.07.73.607.672.526-.056.999-.285 1.468-.514.924-.451 1.903-.276 2.605.462.165.17.264.375.364.582z" fill="#fefefe"/></g><g><path d="M70.546 408.738c5.705 0 11.049 1.081 16.032 3.244 4.984 2.163 9.341 5.109 13.07 8.839 3.73 3.73 6.676 8.087 8.839 13.07 2.162 4.984 3.244 10.328 3.244 16.032 0 5.704-1.081 11.049-3.244 16.032-2.163 4.984-5.109 9.34-8.839 13.07-3.73 3.73-8.086 6.676-13.07 8.839-4.984 2.163-10.328 3.244-16.032 3.244-5.705 0-11.049-1.081-16.032-3.244-4.984-2.163-9.34-5.109-13.07-8.839-3.73-3.73-6.66-8.087-8.792-13.07-2.131-4.984-3.197-10.328-3.197-16.032s1.066-11.049 3.197-16.032 5.062-9.34 8.792-13.07c3.73-3.73 8.087-6.676 13.07-8.839 4.983-2.162 10.328-3.244 16.032-3.244zm0 4.514c-5.078 0-9.842.956-14.293 2.868s-8.337 4.529-11.66 7.852c-3.322 3.322-5.94 7.209-7.852 11.66-1.912 4.451-2.868 9.215-2.868 14.293 0 5.077.956 9.842 2.868 14.293 1.912 4.451 4.529 8.337 7.852 11.66 3.322 3.322 7.209 5.94 11.66 7.852 4.451 1.912 9.215 2.868 14.293 2.868 5.078 0 9.842-.956 14.293-2.868 4.451-1.911 8.337-4.529 11.66-7.852 3.323-3.323 5.94-7.209 7.852-11.66 1.912-4.451 2.868-9.215 2.868-14.293 0-5.077-.956-9.842-2.868-14.293-1.911-4.451-4.529-8.337-7.852-11.66-3.322-3.322-7.209-5.94-11.66-7.852-4.451-1.912-9.215-2.868-14.293-2.868zm10.531 43.442c3.949-1.38 5.924-3.981 5.924-7.805 0-2.006-.329-3.589-.987-4.749-.658-1.16-1.708-2.116-3.15-2.868-.69-.376-1.504-.596-2.445-.658a31.447 31.447 0 0 0-3.009-.047 68.404 68.404 0 0 0-3.385.188 45.394 45.394 0 0 1-7.146 0c-1.191-.094-2.319-.157-3.385-.188s-2.069-.016-3.009.047-1.755.282-2.445.658c-1.442.752-2.476 1.708-3.103 2.868s-.94 2.743-.94 4.749c0 3.824 1.975 6.425 5.924 7.805.69.188 1.442.376 2.257.564.69.125 1.552.251 2.586.376 1.034.125 2.241.189 3.62.189h4.137a30.67 30.67 0 0 0 3.574-.189 58.481 58.481 0 0 0 2.727-.376 29.52 29.52 0 0 0 2.255-.564zm11.284-13.635c0 2.006-.22 3.902-.658 5.689a12.028 12.028 0 0 1-2.445 4.843c-1.191 1.442-2.837 2.633-4.937 3.573s-4.78 1.536-8.04 1.787c.501.251 1.144.564 1.928.94s1.457 1.097 2.022 2.163c.313.689.517 1.693.611 3.009.094 1.316.141 2.664.141 4.043 0 1.38-.016 2.649-.047 3.808-.031 1.16.016 1.865.141 2.116.251.501.611.94 1.081 1.316.47.376.862.658 1.175.846.313.189.407.423.282.706-.125.282-.564.455-1.316.517-.376 0-.846-.062-1.41-.188a5.084 5.084 0 0 1-1.599-.658 4.535 4.535 0 0 1-1.269-1.175c-.345-.471-.517-1.082-.517-1.834v-7.71c0-.877-.204-1.504-.612-1.881-.407-.376-.83-.627-1.269-.752v10.155c0 1.818.219 3.009.658 3.573.188.251.36.517.517.799.157.282.251.517.282.705.031.188-.078.298-.33.329-.251.031-.72-.047-1.41-.235-1.316-.313-2.257-1.034-2.821-2.163a7.885 7.885 0 0 1-.846-3.573v-9.967h-2.068v9.967a8.262 8.262 0 0 1-.799 3.573c-.533 1.128-1.489 1.849-2.868 2.163-.69.188-1.144.266-1.363.235s-.329-.141-.329-.329c0-.188.094-.423.282-.705.188-.282.376-.548.564-.799.125-.251.266-.69.423-1.316.157-.627.235-1.379.235-2.257v-10.155c-.439.125-.846.376-1.222.752s-.564 1.003-.564 1.881v7.71c0 .752-.172 1.363-.517 1.834-.345.47-.768.861-1.269 1.175a5.065 5.065 0 0 1-1.599.658c-.564.125-1.034.188-1.41.188-.752-.062-1.191-.235-1.316-.517-.125-.282-.031-.517.282-.705.313-.189.705-.471 1.175-.847.47-.376.831-.815 1.081-1.316.125-.314.172-1.144.141-2.492a195.391 195.391 0 0 1-.047-4.466c-.501.188-1.16.314-1.975.376-.815.062-1.724 0-2.727-.189-1.693-.314-2.978-.861-3.855-1.646-.878-.784-1.724-2.022-2.539-3.714-.439-.815-.925-1.489-1.457-2.022a15.016 15.016 0 0 0-1.41-1.269 9.973 9.973 0 0 1-.94-.799c-.219-.219-.235-.423-.047-.611.376-.439.893-.627 1.552-.564.658.063 1.05.157 1.175.282.752.313 1.504.972 2.257 1.975.752 1.003 1.536 1.849 2.351 2.539.376.313.846.627 1.41.94a6.081 6.081 0 0 0 1.881.658c.69.125 1.442.125 2.257 0 .815-.125 1.63-.47 2.445-1.034.188-.815.486-1.457.893-1.928.407-.47.846-.846 1.316-1.128.47-.282.909-.501 1.316-.658.407-.157.737-.298.987-.423-3.448-.251-6.269-.83-8.463-1.739s-3.934-2.069-5.219-3.479a11.29 11.29 0 0 1-2.633-4.843 22.832 22.832 0 0 1-.705-5.736c0-2.069.313-3.918.94-5.548a13.794 13.794 0 0 1 2.633-4.325c-.501-1.504-.674-3.087-.517-4.749.157-1.661.486-3.15.987-4.466 2.382.125 4.372.627 5.971 1.504 1.599.878 2.711 1.599 3.338 2.163a30.999 30.999 0 0 1 8.369-1.128h.658c2.695 0 5.298.313 7.804.94.69-.564 1.818-1.254 3.385-2.069 1.567-.815 3.511-1.285 5.83-1.41.501 1.254.831 2.664.987 4.231a12.72 12.72 0 0 1-.329 4.513c1.254 1.254 2.225 2.743 2.915 4.466.69 1.724 1.035 3.683 1.035 5.877zm-22.003-2.162h.188-.188zm12.13 7.334c0 .878-.235 1.63-.705 2.257-.47.627-1.05.94-1.74.94-.689 0-1.253-.313-1.693-.94-.439-.627-.658-1.379-.658-2.257 0-.877.22-1.63.658-2.257.439-.627 1.003-.94 1.693-.94s1.27.313 1.74.94.705 1.379.705 2.257zm-18.43 0c0 .878-.235 1.63-.705 2.257-.47.627-1.05.94-1.74.94s-1.254-.313-1.693-.94c-.439-.627-.658-1.379-.658-2.257 0-.877.219-1.63.658-2.257s1.003-.94 1.693-.94c.69 0 1.269.313 1.74.94.47.627.705 1.379.705 2.257z" fill="#010002"/></g></svg>