<svg xmlns="http://www.w3.org/2000/svg" xmlns:xlink="http://www.w3.org/1999/xlink" viewBox="0 0 1476.591 683.756">
    <defs>
        <path id="a"
            d="M373.588 112.608c-88.628.005-169.224 60.108-191.469 150.035-26.211 105.848 38.363 212.88 144.203 239.064 105.856 26.203 212.879-38.36 239.076-144.207 26.186-105.849-38.35-212.875-144.213-239.06-15.932-3.944-31.878-5.831-47.584-5.831l-.013-.001" />
    </defs>
    <clipPath id="b">
        <use xlink:href="#a" overflow="visible" />
    </clipPath>
    <radialGradient id="c" cx="-91.543" cy="3980.731" r="1"
        gradientTransform="matrix(197.4678 0 0 -197.4678 18450.568 786376.188)" gradientUnits="userSpaceOnUse">
        <stop offset="0" stop-color="#fff" />
        <stop offset=".781" stop-color="#fff" />
        <stop offset=".822" stop-color="#f6f4f1" />
        <stop offset=".883" stop-color="#e5ded9" />
        <stop offset=".957" stop-color="#c9c0b7" />
        <stop offset="1" stop-color="#b6aba1" />
    </radialGradient>
    <path clip-path="url(#b)" fill="url(#c)" d="M155.908 112.608h435.677V527.91H155.908z" />
    <path
        d="M182.12 262.643c26.19-105.867 133.232-170.402 239.066-144.205 105.862 26.185 170.399 133.211 144.212 239.06-26.196 105.847-133.221 170.41-239.075 144.208C220.481 475.522 155.909 368.49 182.12 262.643"
        fill="#223c72" />
    <g>
        <path
            d="M513.806 170.877l-79.391 52.924V122.208a201.129 201.129 0 0 0-13.229-3.77c-37.248-9.22-74.642-7.188-108.611 3.916v101.457l-79.077-52.709a196.11 196.11 0 0 0-42.823 65.073l20.942 13.96h-25.952a201.136 201.136 0 0 0-3.546 12.509c-9.289 37.513-7.166 75.171 4.149 109.331h25.867l-20.717 13.811a198.44 198.44 0 0 0 43.457 64.634l77.699-51.788v99.139a198.22 198.22 0 0 0 13.748 3.935c37.061 9.175 74.261 7.21 108.092-3.747v-99.327l78.01 51.995c18.324-18.044 33.294-39.825 43.57-64.556l-21.148-14.096h26.383a200.787 200.787 0 0 0 4.168-14.475c9.102-36.795 7.233-73.73-3.515-107.364h-26.511l21.351-14.231c-9.847-24.245-24.429-46.395-42.916-65.028"
            fill="#efebe7" />
    </g>
    <g>
        <path
            d="M282.205 250.136l-73.307-48.76a195.831 195.831 0 0 0-13.181 23.303l38.267 25.458h48.221zm256.101-49.143a198.27 198.27 0 0 0-16.26-21.269L434.416 238v12.136h30.011l73.879-49.143zM209.441 419.511a198.002 198.002 0 0 0 16.3 21.218l86.835-57.748v-11.006h-31.652l-71.483 47.536zm358.732-144.003H409.041V115.841c-24.124-4.404-48.142-4.209-71.092.036v159.631H179.393c-4.315 24.123-4.025 48.134.301 71.064h158.255v157.636c24.119 4.473 48.138 4.335 71.092.154v-157.79H567.77c4.557-24.097 4.495-48.105.403-71.064m-102.05 96.467l71.843 47.776a195.718 195.718 0 0 0 13.307-23.222l-36.932-24.555-48.218.001z"
            fill="#ef3827" />
    </g>
    <g>
        <path d="M434.416 142.759V155.563c.776-2.426 1.184-4.729 1.186-6.886.004-2.116-.382-4.098-1.186-5.918"
            fill="#303f66" />
    </g>
    <g>
        <path
            d="M804.913 262.644c26.19-105.868 133.233-170.402 239.065-144.206 105.863 26.186 170.401 133.212 144.213 239.06-26.196 105.849-133.22 170.411-239.075 144.21-105.841-26.184-170.414-133.217-144.203-239.064"
            fill="#ef3e43" />
        <path
            d="M810.591 243.756h371.926c-21.526-60.194-71.819-108.814-138.538-125.319-99.382-24.599-199.825 30.81-233.388 125.319"
            fill="#efebe7" />
        <path
            d="M1189.754 350.661c.086-.421.174-.84.259-1.261.15-.733.296-1.468.435-2.201.083-.426.166-.851.245-1.277.14-.758.274-1.518.406-2.278a175.229 175.229 0 0 0 .652-3.995c.029-.187.061-.373.09-.561.17-1.142.328-2.28.478-3.42.041-.302.076-.604.114-.905.107-.837.211-1.673.305-2.509.046-.399.087-.797.131-1.193a188.128 188.128 0 0 0 .345-3.489c.07-.758.13-1.515.191-2.27l.09-1.153c.062-.87.118-1.738.169-2.606.015-.265.034-.529.051-.79.06-1.142.116-2.281.157-3.42.007-.186.01-.372.017-.557.034-.944.061-1.886.079-2.829.008-.358.01-.715.018-1.074.01-.778.018-1.555.022-2.331.003-.391 0-.783 0-1.174-.005-.76-.011-1.521-.022-2.282-.005-.375-.01-.75-.018-1.126-.016-.834-.041-1.667-.069-2.499-.01-.289-.015-.577-.027-.866a196.735 196.735 0 0 0-.369-6.757c-.022-.296-.047-.591-.072-.887-.062-.823-.128-1.645-.203-2.465a178.566 178.566 0 0 0-.333-3.393 95.263 95.263 0 0 0-.114-1.06c-.094-.821-.191-1.641-.295-2.46-.036-.286-.069-.575-.109-.861a184.03 184.03 0 0 0-.985-6.687c-.031-.2-.067-.398-.102-.597-.15-.898-.305-1.795-.468-2.69l-.173-.915c-.149-.803-.305-1.603-.464-2.402l-.193-.951c-.17-.82-.341-1.637-.519-2.455l-.18-.816a203.603 203.603 0 0 0-.695-2.999l-.051-.223c-.254-1.045-.513-2.09-.781-3.13h-.003a197.31 197.31 0 0 0-5.249-17.091H810.59a199.554 199.554 0 0 0-5.678 18.888c-6.558 26.492-7.422 53.055-3.381 78.41a165.35 165.35 0 0 0 .626 3.694 151.08 151.08 0 0 0 .63 3.356c.159.815.323 1.626.492 2.436.066.306.131.613.199.918.164.771.331 1.537.505 2.305.082.358.17.713.251 1.071.167.719.335 1.437.51 2.154.134.541.274 1.08.411 1.621a196.368 196.368 0 0 0 1.285 4.815c.098.352.201.699.302 1.049.217.753.434 1.506.659 2.258.107.35.218.702.324 1.053.229.748.461 1.495.699 2.239.109.346.223.689.336 1.034a237.53 237.53 0 0 0 1.088 3.251c.259.752.525 1.501.794 2.251l.184.527h.005c.17.463.332.928.504 1.388h370.411c.17-.459.325-.926.49-1.388h.027c.416-1.156.811-2.324 1.205-3.491.038-.114.08-.228.118-.34a199.071 199.071 0 0 0 1.486-4.601c.068-.214.137-.428.203-.644.443-1.442.863-2.895 1.275-4.353.087-.306.178-.608.264-.915.48-1.738.941-3.482 1.377-5.242.282-1.134.551-2.274.81-3.41.084-.363.159-.728.244-1.091.172-.78.344-1.559.509-2.338"
            fill="#005b95" />
    </g>
</svg>